<mxfile host="Electron" modified="2023-07-20T12:32:57.885Z" agent="Mozilla/5.0 (X11; Linux x86_64) AppleWebKit/537.36 (KHTML, like Gecko) draw.io/21.6.1 Chrome/112.0.5615.204 Electron/24.6.1 Safari/537.36" etag="XoT4EesbKN_yrhtWsApZ" version="21.6.1" type="device">
  <diagram id="E7sTq34lYOFrp3zBdxYR" name="Page-1">
    <mxGraphModel dx="3697" dy="278" grid="1" gridSize="10" guides="1" tooltips="1" connect="1" arrows="1" fold="1" page="1" pageScale="1" pageWidth="827" pageHeight="1169" math="0" shadow="0">
      <root>
        <mxCell id="0" />
        <mxCell id="1" parent="0" />
        <mxCell id="qJ1fazh-xYwICBQDKXbx-2" value="" style="rounded=0;whiteSpace=wrap;html=1;fillColor=none;strokeColor=none;" vertex="1" parent="1">
          <mxGeometry x="-2450" y="20" width="710" height="480" as="geometry" />
        </mxCell>
        <mxCell id="HWLBEzyQGuHBr8rm4z_1-1" value="--" style="group" parent="1" vertex="1" connectable="0">
          <mxGeometry x="-1880" y="40" width="120" height="120" as="geometry" />
        </mxCell>
        <mxCell id="HWLBEzyQGuHBr8rm4z_1-2" value="Stand-alone" style="image=img/lib/ibm/vpc/BareMetalServer.svg;imageVerticalAlign=top;fontStyle=0;verticalAlign=top;align=left;spacingLeft=32;spacingTop=4;fillColor=#E6F0E2;rounded=0;whiteSpace=wrap;html=1;strokeColor=#00882B;strokeWidth=1;dashed=0;container=1;spacing=-4;collapsible=0;expand=0;recursiveResize=0;" parent="HWLBEzyQGuHBr8rm4z_1-1" vertex="1">
          <mxGeometry width="120" height="120" as="geometry" />
        </mxCell>
        <mxCell id="HWLBEzyQGuHBr8rm4z_1-3" value="" style="shape=image;aspect=fixed;image=data:image/svg+xml,PD94bWwgdmVyc2lvbj0iMS4wIiBlbmNvZGluZz0iVVRGLTgiIHN0YW5kYWxvbmU9Im5vIj8+CjwhLS0gQ3JlYXRlZCB3aXRoIElua3NjYXBlIChodHRwOi8vd3d3Lmlua3NjYXBlLm9yZy8pIC0tPgoKPHN2ZwogICB3aWR0aD0iMTc3LjhtbSIKICAgaGVpZ2h0PSIxNDYuMDVtbSIKICAgdmlld0JveD0iMCAwIDE3Ny44IDE0Ni4wNSIKICAgdmVyc2lvbj0iMS4xIgogICBpZD0ic3ZnMTg1OTMiCiAgIGlua3NjYXBlOnZlcnNpb249IjEuMi4yIChiMGE4NDg2NTQxLCAyMDIyLTEyLTAxKSIKICAgc29kaXBvZGk6ZG9jbmFtZT0ibG9nby1vbmx5LnN2ZyIKICAgeG1sbnM6aW5rc2NhcGU9Imh0dHA6Ly93d3cuaW5rc2NhcGUub3JnL25hbWVzcGFjZXMvaW5rc2NhcGUiCiAgIHhtbG5zOnNvZGlwb2RpPSJodHRwOi8vc29kaXBvZGkuc291cmNlZm9yZ2UubmV0L0RURC9zb2RpcG9kaS0wLmR0ZCIKICAgeG1sbnM9Imh0dHA6Ly93d3cudzMub3JnLzIwMDAvc3ZnIgogICB4bWxuczpzdmc9Imh0dHA6Ly93d3cudzMub3JnLzIwMDAvc3ZnIj4KICA8c29kaXBvZGk6bmFtZWR2aWV3CiAgICAgaWQ9Im5hbWVkdmlldzE4NTk1IgogICAgIHBhZ2Vjb2xvcj0iI2ZmZmZmZiIKICAgICBib3JkZXJjb2xvcj0iIzY2NjY2NiIKICAgICBib3JkZXJvcGFjaXR5PSIxLjAiCiAgICAgaW5rc2NhcGU6c2hvd3BhZ2VzaGFkb3c9IjIiCiAgICAgaW5rc2NhcGU6cGFnZW9wYWNpdHk9IjAuMCIKICAgICBpbmtzY2FwZTpwYWdlY2hlY2tlcmJvYXJkPSIwIgogICAgIGlua3NjYXBlOmRlc2tjb2xvcj0iI2QxZDFkMSIKICAgICBpbmtzY2FwZTpkb2N1bWVudC11bml0cz0ibW0iCiAgICAgc2hvd2dyaWQ9ImZhbHNlIgogICAgIGlua3NjYXBlOnpvb209IjAuOTE0OTA2IgogICAgIGlua3NjYXBlOmN4PSI0MjcuMzY2MzEiCiAgICAgaW5rc2NhcGU6Y3k9IjM2OC4zNDM4NSIKICAgICBpbmtzY2FwZTp3aW5kb3ctd2lkdGg9IjE3MTYiCiAgICAgaW5rc2NhcGU6d2luZG93LWhlaWdodD0iMTQwNSIKICAgICBpbmtzY2FwZTp3aW5kb3cteD0iMTcyMCIKICAgICBpbmtzY2FwZTp3aW5kb3cteT0iMCIKICAgICBpbmtzY2FwZTp3aW5kb3ctbWF4aW1pemVkPSIxIgogICAgIGlua3NjYXBlOmN1cnJlbnQtbGF5ZXI9ImxheWVyMSIgLz4KICA8ZGVmcwogICAgIGlkPSJkZWZzMTg1OTAiIC8+CiAgPGcKICAgICBpbmtzY2FwZTpsYWJlbD0iTGF5ZXIgMSIKICAgICBpbmtzY2FwZTpncm91cG1vZGU9ImxheWVyIgogICAgIGlkPSJsYXllcjEiCiAgICAgdHJhbnNmb3JtPSJ0cmFuc2xhdGUoOC4yMTU0ODA5LC01MS4zMjc0ODQpIj4KICAgIDxwYXRoCiAgICAgICBmaWxsLXJ1bGU9ImV2ZW5vZGQiCiAgICAgICBjbGlwLXJ1bGU9ImV2ZW5vZGQiCiAgICAgICBkPSJNIDEwMS4xNTQ1NCwxOTcuMzc3NDggSCA2NS4yODc4ODUgTCAtOC4yMTU0ODA5LDUxLjMyNzQ4NCBIIDk2LjEyMDU3NCBjIDQwLjU3MDE0NiwwLjA3Njc1IDczLjQ0MjUxNiwzMy45MjE0MzUgNzMuNDYzOTQ2LDc1LjY3MzQ3NiAtMC4wNjUxLDM4LjkwOTM2IC0zMC42NzA1LDcwLjM3NjUyIC02OC40Mjk5OCw3MC4zNzY1MiB6IgogICAgICAgZmlsbD0id2hpdGUiCiAgICAgICBpZD0icGF0aDExIgogICAgICAgc3R5bGU9ImZpbGw6IzAwYWI0NDtmaWxsLW9wYWNpdHk6MTtzdHJva2Utd2lkdGg6MC4yNjQ1ODMiIC8+CiAgPC9nPgo8L3N2Zz4K;" parent="HWLBEzyQGuHBr8rm4z_1-1" vertex="1">
          <mxGeometry x="45" y="47.68000000000001" width="30" height="24.64" as="geometry" />
        </mxCell>
        <mxCell id="HWLBEzyQGuHBr8rm4z_1-4" value="" style="group" parent="1" vertex="1" connectable="0">
          <mxGeometry x="-1880" y="200" width="120" height="120" as="geometry" />
        </mxCell>
        <mxCell id="HWLBEzyQGuHBr8rm4z_1-5" value="Stand-alone" style="image=img/lib/ibm/vpc/BareMetalServer.svg;imageVerticalAlign=top;fontStyle=0;verticalAlign=top;align=left;spacingLeft=32;spacingTop=4;fillColor=#E6F0E2;rounded=0;whiteSpace=wrap;html=1;strokeColor=#00882B;strokeWidth=1;dashed=0;container=1;spacing=-4;collapsible=0;expand=0;recursiveResize=0;" parent="HWLBEzyQGuHBr8rm4z_1-4" vertex="1">
          <mxGeometry width="120" height="120" as="geometry" />
        </mxCell>
        <mxCell id="HWLBEzyQGuHBr8rm4z_1-6" value="" style="shape=image;aspect=fixed;image=data:image/svg+xml,PD94bWwgdmVyc2lvbj0iMS4wIiBlbmNvZGluZz0iVVRGLTgiIHN0YW5kYWxvbmU9Im5vIj8+CjwhLS0gQ3JlYXRlZCB3aXRoIElua3NjYXBlIChodHRwOi8vd3d3Lmlua3NjYXBlLm9yZy8pIC0tPgoKPHN2ZwogICB3aWR0aD0iMTc3LjhtbSIKICAgaGVpZ2h0PSIxNDYuMDVtbSIKICAgdmlld0JveD0iMCAwIDE3Ny44IDE0Ni4wNSIKICAgdmVyc2lvbj0iMS4xIgogICBpZD0ic3ZnMTg1OTMiCiAgIGlua3NjYXBlOnZlcnNpb249IjEuMi4yIChiMGE4NDg2NTQxLCAyMDIyLTEyLTAxKSIKICAgc29kaXBvZGk6ZG9jbmFtZT0ibG9nby1vbmx5LnN2ZyIKICAgeG1sbnM6aW5rc2NhcGU9Imh0dHA6Ly93d3cuaW5rc2NhcGUub3JnL25hbWVzcGFjZXMvaW5rc2NhcGUiCiAgIHhtbG5zOnNvZGlwb2RpPSJodHRwOi8vc29kaXBvZGkuc291cmNlZm9yZ2UubmV0L0RURC9zb2RpcG9kaS0wLmR0ZCIKICAgeG1sbnM9Imh0dHA6Ly93d3cudzMub3JnLzIwMDAvc3ZnIgogICB4bWxuczpzdmc9Imh0dHA6Ly93d3cudzMub3JnLzIwMDAvc3ZnIj4KICA8c29kaXBvZGk6bmFtZWR2aWV3CiAgICAgaWQ9Im5hbWVkdmlldzE4NTk1IgogICAgIHBhZ2Vjb2xvcj0iI2ZmZmZmZiIKICAgICBib3JkZXJjb2xvcj0iIzY2NjY2NiIKICAgICBib3JkZXJvcGFjaXR5PSIxLjAiCiAgICAgaW5rc2NhcGU6c2hvd3BhZ2VzaGFkb3c9IjIiCiAgICAgaW5rc2NhcGU6cGFnZW9wYWNpdHk9IjAuMCIKICAgICBpbmtzY2FwZTpwYWdlY2hlY2tlcmJvYXJkPSIwIgogICAgIGlua3NjYXBlOmRlc2tjb2xvcj0iI2QxZDFkMSIKICAgICBpbmtzY2FwZTpkb2N1bWVudC11bml0cz0ibW0iCiAgICAgc2hvd2dyaWQ9ImZhbHNlIgogICAgIGlua3NjYXBlOnpvb209IjAuOTE0OTA2IgogICAgIGlua3NjYXBlOmN4PSI0MjcuMzY2MzEiCiAgICAgaW5rc2NhcGU6Y3k9IjM2OC4zNDM4NSIKICAgICBpbmtzY2FwZTp3aW5kb3ctd2lkdGg9IjE3MTYiCiAgICAgaW5rc2NhcGU6d2luZG93LWhlaWdodD0iMTQwNSIKICAgICBpbmtzY2FwZTp3aW5kb3cteD0iMTcyMCIKICAgICBpbmtzY2FwZTp3aW5kb3cteT0iMCIKICAgICBpbmtzY2FwZTp3aW5kb3ctbWF4aW1pemVkPSIxIgogICAgIGlua3NjYXBlOmN1cnJlbnQtbGF5ZXI9ImxheWVyMSIgLz4KICA8ZGVmcwogICAgIGlkPSJkZWZzMTg1OTAiIC8+CiAgPGcKICAgICBpbmtzY2FwZTpsYWJlbD0iTGF5ZXIgMSIKICAgICBpbmtzY2FwZTpncm91cG1vZGU9ImxheWVyIgogICAgIGlkPSJsYXllcjEiCiAgICAgdHJhbnNmb3JtPSJ0cmFuc2xhdGUoOC4yMTU0ODA5LC01MS4zMjc0ODQpIj4KICAgIDxwYXRoCiAgICAgICBmaWxsLXJ1bGU9ImV2ZW5vZGQiCiAgICAgICBjbGlwLXJ1bGU9ImV2ZW5vZGQiCiAgICAgICBkPSJNIDEwMS4xNTQ1NCwxOTcuMzc3NDggSCA2NS4yODc4ODUgTCAtOC4yMTU0ODA5LDUxLjMyNzQ4NCBIIDk2LjEyMDU3NCBjIDQwLjU3MDE0NiwwLjA3Njc1IDczLjQ0MjUxNiwzMy45MjE0MzUgNzMuNDYzOTQ2LDc1LjY3MzQ3NiAtMC4wNjUxLDM4LjkwOTM2IC0zMC42NzA1LDcwLjM3NjUyIC02OC40Mjk5OCw3MC4zNzY1MiB6IgogICAgICAgZmlsbD0id2hpdGUiCiAgICAgICBpZD0icGF0aDExIgogICAgICAgc3R5bGU9ImZpbGw6IzAwYWI0NDtmaWxsLW9wYWNpdHk6MTtzdHJva2Utd2lkdGg6MC4yNjQ1ODMiIC8+CiAgPC9nPgo8L3N2Zz4K;" parent="HWLBEzyQGuHBr8rm4z_1-4" vertex="1">
          <mxGeometry x="45" y="47.68000000000001" width="30" height="24.64" as="geometry" />
        </mxCell>
        <mxCell id="HWLBEzyQGuHBr8rm4z_1-7" value="" style="group" parent="1" vertex="1" connectable="0">
          <mxGeometry x="-1880" y="360" width="120" height="120" as="geometry" />
        </mxCell>
        <mxCell id="HWLBEzyQGuHBr8rm4z_1-8" value="Stand-alone" style="image=img/lib/ibm/vpc/BareMetalServer.svg;imageVerticalAlign=top;fontStyle=0;verticalAlign=top;align=left;spacingLeft=32;spacingTop=4;fillColor=#E6F0E2;rounded=0;whiteSpace=wrap;html=1;strokeColor=#00882B;strokeWidth=1;dashed=0;container=1;spacing=-4;collapsible=0;expand=0;recursiveResize=0;" parent="HWLBEzyQGuHBr8rm4z_1-7" vertex="1">
          <mxGeometry width="120" height="120" as="geometry" />
        </mxCell>
        <mxCell id="HWLBEzyQGuHBr8rm4z_1-9" value="" style="shape=image;aspect=fixed;image=data:image/svg+xml,PD94bWwgdmVyc2lvbj0iMS4wIiBlbmNvZGluZz0iVVRGLTgiIHN0YW5kYWxvbmU9Im5vIj8+CjwhLS0gQ3JlYXRlZCB3aXRoIElua3NjYXBlIChodHRwOi8vd3d3Lmlua3NjYXBlLm9yZy8pIC0tPgoKPHN2ZwogICB3aWR0aD0iMTc3LjhtbSIKICAgaGVpZ2h0PSIxNDYuMDVtbSIKICAgdmlld0JveD0iMCAwIDE3Ny44IDE0Ni4wNSIKICAgdmVyc2lvbj0iMS4xIgogICBpZD0ic3ZnMTg1OTMiCiAgIGlua3NjYXBlOnZlcnNpb249IjEuMi4yIChiMGE4NDg2NTQxLCAyMDIyLTEyLTAxKSIKICAgc29kaXBvZGk6ZG9jbmFtZT0ibG9nby1vbmx5LnN2ZyIKICAgeG1sbnM6aW5rc2NhcGU9Imh0dHA6Ly93d3cuaW5rc2NhcGUub3JnL25hbWVzcGFjZXMvaW5rc2NhcGUiCiAgIHhtbG5zOnNvZGlwb2RpPSJodHRwOi8vc29kaXBvZGkuc291cmNlZm9yZ2UubmV0L0RURC9zb2RpcG9kaS0wLmR0ZCIKICAgeG1sbnM9Imh0dHA6Ly93d3cudzMub3JnLzIwMDAvc3ZnIgogICB4bWxuczpzdmc9Imh0dHA6Ly93d3cudzMub3JnLzIwMDAvc3ZnIj4KICA8c29kaXBvZGk6bmFtZWR2aWV3CiAgICAgaWQ9Im5hbWVkdmlldzE4NTk1IgogICAgIHBhZ2Vjb2xvcj0iI2ZmZmZmZiIKICAgICBib3JkZXJjb2xvcj0iIzY2NjY2NiIKICAgICBib3JkZXJvcGFjaXR5PSIxLjAiCiAgICAgaW5rc2NhcGU6c2hvd3BhZ2VzaGFkb3c9IjIiCiAgICAgaW5rc2NhcGU6cGFnZW9wYWNpdHk9IjAuMCIKICAgICBpbmtzY2FwZTpwYWdlY2hlY2tlcmJvYXJkPSIwIgogICAgIGlua3NjYXBlOmRlc2tjb2xvcj0iI2QxZDFkMSIKICAgICBpbmtzY2FwZTpkb2N1bWVudC11bml0cz0ibW0iCiAgICAgc2hvd2dyaWQ9ImZhbHNlIgogICAgIGlua3NjYXBlOnpvb209IjAuOTE0OTA2IgogICAgIGlua3NjYXBlOmN4PSI0MjcuMzY2MzEiCiAgICAgaW5rc2NhcGU6Y3k9IjM2OC4zNDM4NSIKICAgICBpbmtzY2FwZTp3aW5kb3ctd2lkdGg9IjE3MTYiCiAgICAgaW5rc2NhcGU6d2luZG93LWhlaWdodD0iMTQwNSIKICAgICBpbmtzY2FwZTp3aW5kb3cteD0iMTcyMCIKICAgICBpbmtzY2FwZTp3aW5kb3cteT0iMCIKICAgICBpbmtzY2FwZTp3aW5kb3ctbWF4aW1pemVkPSIxIgogICAgIGlua3NjYXBlOmN1cnJlbnQtbGF5ZXI9ImxheWVyMSIgLz4KICA8ZGVmcwogICAgIGlkPSJkZWZzMTg1OTAiIC8+CiAgPGcKICAgICBpbmtzY2FwZTpsYWJlbD0iTGF5ZXIgMSIKICAgICBpbmtzY2FwZTpncm91cG1vZGU9ImxheWVyIgogICAgIGlkPSJsYXllcjEiCiAgICAgdHJhbnNmb3JtPSJ0cmFuc2xhdGUoOC4yMTU0ODA5LC01MS4zMjc0ODQpIj4KICAgIDxwYXRoCiAgICAgICBmaWxsLXJ1bGU9ImV2ZW5vZGQiCiAgICAgICBjbGlwLXJ1bGU9ImV2ZW5vZGQiCiAgICAgICBkPSJNIDEwMS4xNTQ1NCwxOTcuMzc3NDggSCA2NS4yODc4ODUgTCAtOC4yMTU0ODA5LDUxLjMyNzQ4NCBIIDk2LjEyMDU3NCBjIDQwLjU3MDE0NiwwLjA3Njc1IDczLjQ0MjUxNiwzMy45MjE0MzUgNzMuNDYzOTQ2LDc1LjY3MzQ3NiAtMC4wNjUxLDM4LjkwOTM2IC0zMC42NzA1LDcwLjM3NjUyIC02OC40Mjk5OCw3MC4zNzY1MiB6IgogICAgICAgZmlsbD0id2hpdGUiCiAgICAgICBpZD0icGF0aDExIgogICAgICAgc3R5bGU9ImZpbGw6IzAwYWI0NDtmaWxsLW9wYWNpdHk6MTtzdHJva2Utd2lkdGg6MC4yNjQ1ODMiIC8+CiAgPC9nPgo8L3N2Zz4K;" parent="HWLBEzyQGuHBr8rm4z_1-7" vertex="1">
          <mxGeometry x="45" y="47.68000000000001" width="30" height="24.64" as="geometry" />
        </mxCell>
        <mxCell id="HWLBEzyQGuHBr8rm4z_1-10" value="" style="edgeStyle=elbowEdgeStyle;elbow=horizontal;endArrow=classic;html=1;exitX=0;exitY=0.5;exitDx=0;exitDy=0;entryX=0.88;entryY=0.25;entryDx=0;entryDy=0;entryPerimeter=0;" parent="1" source="HWLBEzyQGuHBr8rm4z_1-3" target="HWLBEzyQGuHBr8rm4z_1-11" edge="1">
          <mxGeometry width="50" height="50" relative="1" as="geometry">
            <mxPoint x="-2700" y="280" as="sourcePoint" />
            <mxPoint x="-2650" y="230" as="targetPoint" />
            <Array as="points">
              <mxPoint x="-2160" y="170" />
            </Array>
          </mxGeometry>
        </mxCell>
        <mxCell id="HWLBEzyQGuHBr8rm4z_1-11" value="" style="ellipse;shape=cloud;whiteSpace=wrap;html=1;" parent="1" vertex="1">
          <mxGeometry x="-2440" y="200" width="200" height="120" as="geometry" />
        </mxCell>
        <mxCell id="HWLBEzyQGuHBr8rm4z_1-12" value="" style="shape=image;aspect=fixed;image=data:image/svg+xml,PD94bWwgdmVyc2lvbj0iMS4wIiBlbmNvZGluZz0iVVRGLTgiIHN0YW5kYWxvbmU9Im5vIj8+CjwhLS0gQ3JlYXRlZCB3aXRoIElua3NjYXBlIChodHRwOi8vd3d3Lmlua3NjYXBlLm9yZy8pIC0tPgoKPHN2ZwogICB3aWR0aD0iMTc3LjhtbSIKICAgaGVpZ2h0PSIxNDYuMDVtbSIKICAgdmlld0JveD0iMCAwIDE3Ny44IDE0Ni4wNSIKICAgdmVyc2lvbj0iMS4xIgogICBpZD0ic3ZnMTg1OTMiCiAgIGlua3NjYXBlOnZlcnNpb249IjEuMi4yIChiMGE4NDg2NTQxLCAyMDIyLTEyLTAxKSIKICAgc29kaXBvZGk6ZG9jbmFtZT0ibG9nby1vbmx5LnN2ZyIKICAgeG1sbnM6aW5rc2NhcGU9Imh0dHA6Ly93d3cuaW5rc2NhcGUub3JnL25hbWVzcGFjZXMvaW5rc2NhcGUiCiAgIHhtbG5zOnNvZGlwb2RpPSJodHRwOi8vc29kaXBvZGkuc291cmNlZm9yZ2UubmV0L0RURC9zb2RpcG9kaS0wLmR0ZCIKICAgeG1sbnM9Imh0dHA6Ly93d3cudzMub3JnLzIwMDAvc3ZnIgogICB4bWxuczpzdmc9Imh0dHA6Ly93d3cudzMub3JnLzIwMDAvc3ZnIj4KICA8c29kaXBvZGk6bmFtZWR2aWV3CiAgICAgaWQ9Im5hbWVkdmlldzE4NTk1IgogICAgIHBhZ2Vjb2xvcj0iI2ZmZmZmZiIKICAgICBib3JkZXJjb2xvcj0iIzY2NjY2NiIKICAgICBib3JkZXJvcGFjaXR5PSIxLjAiCiAgICAgaW5rc2NhcGU6c2hvd3BhZ2VzaGFkb3c9IjIiCiAgICAgaW5rc2NhcGU6cGFnZW9wYWNpdHk9IjAuMCIKICAgICBpbmtzY2FwZTpwYWdlY2hlY2tlcmJvYXJkPSIwIgogICAgIGlua3NjYXBlOmRlc2tjb2xvcj0iI2QxZDFkMSIKICAgICBpbmtzY2FwZTpkb2N1bWVudC11bml0cz0ibW0iCiAgICAgc2hvd2dyaWQ9ImZhbHNlIgogICAgIGlua3NjYXBlOnpvb209IjAuOTE0OTA2IgogICAgIGlua3NjYXBlOmN4PSI0MjcuMzY2MzEiCiAgICAgaW5rc2NhcGU6Y3k9IjM2OC4zNDM4NSIKICAgICBpbmtzY2FwZTp3aW5kb3ctd2lkdGg9IjE3MTYiCiAgICAgaW5rc2NhcGU6d2luZG93LWhlaWdodD0iMTQwNSIKICAgICBpbmtzY2FwZTp3aW5kb3cteD0iMTcyMCIKICAgICBpbmtzY2FwZTp3aW5kb3cteT0iMCIKICAgICBpbmtzY2FwZTp3aW5kb3ctbWF4aW1pemVkPSIxIgogICAgIGlua3NjYXBlOmN1cnJlbnQtbGF5ZXI9ImxheWVyMSIgLz4KICA8ZGVmcwogICAgIGlkPSJkZWZzMTg1OTAiIC8+CiAgPGcKICAgICBpbmtzY2FwZTpsYWJlbD0iTGF5ZXIgMSIKICAgICBpbmtzY2FwZTpncm91cG1vZGU9ImxheWVyIgogICAgIGlkPSJsYXllcjEiCiAgICAgdHJhbnNmb3JtPSJ0cmFuc2xhdGUoOC4yMTU0ODA5LC01MS4zMjc0ODQpIj4KICAgIDxwYXRoCiAgICAgICBmaWxsLXJ1bGU9ImV2ZW5vZGQiCiAgICAgICBjbGlwLXJ1bGU9ImV2ZW5vZGQiCiAgICAgICBkPSJNIDEwMS4xNTQ1NCwxOTcuMzc3NDggSCA2NS4yODc4ODUgTCAtOC4yMTU0ODA5LDUxLjMyNzQ4NCBIIDk2LjEyMDU3NCBjIDQwLjU3MDE0NiwwLjA3Njc1IDczLjQ0MjUxNiwzMy45MjE0MzUgNzMuNDYzOTQ2LDc1LjY3MzQ3NiAtMC4wNjUxLDM4LjkwOTM2IC0zMC42NzA1LDcwLjM3NjUyIC02OC40Mjk5OCw3MC4zNzY1MiB6IgogICAgICAgZmlsbD0id2hpdGUiCiAgICAgICBpZD0icGF0aDExIgogICAgICAgc3R5bGU9ImZpbGw6IzAwYWI0NDtmaWxsLW9wYWNpdHk6MTtzdHJva2Utd2lkdGg6MC4yNjQ1ODMiIC8+CiAgPC9nPgo8L3N2Zz4K;" parent="1" vertex="1">
          <mxGeometry x="-2355" y="259.99999999999994" width="30" height="24.64" as="geometry" />
        </mxCell>
        <UserObject label="Netdata Cloud" placeholders="1" name="Variable" id="HWLBEzyQGuHBr8rm4z_1-13">
          <mxCell style="text;html=1;strokeColor=none;fillColor=none;align=center;verticalAlign=middle;whiteSpace=wrap;overflow=hidden;" parent="1" vertex="1">
            <mxGeometry x="-2380" y="230" width="80" height="20" as="geometry" />
          </mxCell>
        </UserObject>
        <mxCell id="HWLBEzyQGuHBr8rm4z_1-14" value="" style="edgeStyle=elbowEdgeStyle;elbow=horizontal;endArrow=classic;html=1;exitX=0;exitY=0.5;exitDx=0;exitDy=0;entryX=0.875;entryY=0.5;entryDx=0;entryDy=0;entryPerimeter=0;" parent="1" source="HWLBEzyQGuHBr8rm4z_1-6" target="HWLBEzyQGuHBr8rm4z_1-11" edge="1">
          <mxGeometry width="50" height="50" relative="1" as="geometry">
            <mxPoint x="-2410" y="300" as="sourcePoint" />
            <mxPoint x="-2360" y="250" as="targetPoint" />
          </mxGeometry>
        </mxCell>
        <mxCell id="HWLBEzyQGuHBr8rm4z_1-15" value="" style="edgeStyle=elbowEdgeStyle;elbow=horizontal;endArrow=classic;html=1;entryX=0.96;entryY=0.7;entryDx=0;entryDy=0;entryPerimeter=0;exitX=0;exitY=0.5;exitDx=0;exitDy=0;" parent="1" source="HWLBEzyQGuHBr8rm4z_1-9" target="HWLBEzyQGuHBr8rm4z_1-11" edge="1">
          <mxGeometry width="50" height="50" relative="1" as="geometry">
            <mxPoint x="-2170" y="440" as="sourcePoint" />
            <mxPoint x="-2240" y="290" as="targetPoint" />
            <Array as="points">
              <mxPoint x="-2160" y="360" />
            </Array>
          </mxGeometry>
        </mxCell>
        <mxCell id="WIS0gJ1Amc_NrS0tKFj--1" value="" style="whiteSpace=wrap;html=1;aspect=fixed;fillColor=none;strokeColor=none;" parent="1" vertex="1">
          <mxGeometry x="-2260" y="310" width="80" height="80" as="geometry" />
        </mxCell>
      </root>
    </mxGraphModel>
  </diagram>
</mxfile>
